<svg width="93" height="95" viewBox="0 0 93 95" fill="none" xmlns="http://www.w3.org/2000/svg">
<path d="M55.7393 38.8581C58.9016 43.6524 60.4632 49.0604 59.8794 55.2861C59.877 55.3125 59.8637 55.3367 59.8427 55.3526C57.448 57.1658 55.1279 58.2662 52.8403 58.996C52.8224 59.0016 52.8034 59.0013 52.7858 58.9951C52.7681 58.989 52.7528 58.9773 52.7419 58.9617C52.2134 58.2034 51.7332 57.404 51.3125 56.5645C51.2884 56.5151 51.3104 56.4555 51.3601 56.436C52.1228 56.1397 52.848 55.7846 53.5455 55.3641C53.6005 55.3309 53.604 55.2497 53.5532 55.2107C53.4052 55.0974 53.2585 54.9783 53.1182 54.8592C53.0919 54.8372 53.0566 54.8328 53.0268 54.8476C48.4982 57.0041 43.5373 57.0041 38.9551 54.8476C38.9253 54.8339 38.89 54.8386 38.8644 54.8603C38.7244 54.9794 38.5774 55.0974 38.4308 55.2107C38.38 55.2497 38.3842 55.3309 38.4395 55.3641C39.1371 55.7766 39.8623 56.1397 40.6239 56.4375C40.6732 56.457 40.6967 56.5151 40.6722 56.5645C40.2606 57.4051 39.7804 58.2045 39.2421 58.9628C39.2186 58.9935 39.1801 59.0075 39.1437 58.996C36.867 58.2662 34.5468 57.1658 32.1521 55.3526C32.1322 55.3367 32.1178 55.3114 32.1157 55.2851C31.6278 49.8999 32.6222 44.4472 36.252 38.857C36.2608 38.8422 36.2741 38.8306 36.2895 38.8238C38.0755 37.9785 39.989 37.3567 41.9889 37.0015C42.0253 36.9957 42.0617 37.0131 42.0806 37.0463C42.3277 37.4974 42.6101 38.076 42.8012 38.5488C44.9093 38.2167 47.0502 38.2167 49.2024 38.5488C49.3935 38.0861 49.6661 37.4974 49.9122 37.0463C49.9209 37.0298 49.9345 37.0166 49.951 37.0086C49.9674 37.0005 49.986 36.9981 50.0039 37.0015C52.0048 37.3577 53.9183 37.9796 55.7029 38.8238C55.7187 38.8306 55.7316 38.8422 55.7393 38.8581V38.8581ZM43.8729 49.0972C43.895 47.5052 42.7694 46.1879 41.3564 46.1879C39.955 46.1879 38.8403 47.4937 38.8403 49.0972C38.8403 50.7004 39.9771 52.0062 41.3564 52.0062C42.7582 52.0062 43.8729 50.7004 43.8729 49.0972V49.0972ZM53.1766 49.0972C53.1987 47.5052 52.0731 46.1879 50.6605 46.1879C49.2587 46.1879 48.144 47.4937 48.144 49.0972C48.144 50.7004 49.2808 52.0062 50.6605 52.0062C52.0731 52.0062 53.1766 50.7004 53.1766 49.0972V49.0972Z" fill="white"/>
</svg>
