<svg width="30" height="31" viewBox="0 0 30 31" fill="none" xmlns="http://www.w3.org/2000/svg">
<g clip-path="url(#clip0_1507_432)">
<path fill-rule="evenodd" clip-rule="evenodd" d="M27.5 19.517L27.5312 19.5048V25.237C27.5312 25.9274 26.9715 26.487 26.2812 26.487C25.9497 26.487 25.6317 26.3553 25.3973 26.1209L22.5312 23.2548H6.25C4.17893 23.2548 2.5 21.5758 2.5 19.5048V8.25476C2.5 6.18369 4.17893 4.50476 6.25 4.50476H23.75C25.8211 4.50476 27.5 6.18369 27.5 8.25476V19.5048C27.5 19.5088 27.5 19.5129 27.5 19.517ZM7.70994 13.9481C9.59698 16.7787 12.0571 18.2548 15 18.2548C17.9429 18.2548 20.403 16.7787 22.2901 13.9481C22.673 13.3737 22.5178 12.5976 21.9434 12.2147C21.369 11.8318 20.5929 11.987 20.2099 12.5614C18.7636 14.7308 17.0571 15.7548 15 15.7548C12.9429 15.7548 11.2364 14.7308 9.79006 12.5614C9.40712 11.987 8.63104 11.8318 8.05662 12.2147C7.48221 12.5976 7.327 13.3737 7.70994 13.9481Z" fill="#ED4352"/>
</g>
<defs>
<clipPath id="clip0_1507_432">
<rect width="30" height="30" fill="white" transform="translate(0 0.754761)"/>
</clipPath>
</defs>
</svg>
