<svg width="30" height="31" viewBox="0 0 30 31" fill="none" xmlns="http://www.w3.org/2000/svg">
<g clip-path="url(#clip0_1507_426)">
<path fill-rule="evenodd" clip-rule="evenodd" d="M4.9464 11.2736L14.3482 5.52806C14.7484 5.28353 15.2517 5.28353 15.6518 5.52806L25.0536 11.2736C25.7968 11.7278 26.25 12.5359 26.25 13.4068V24.5048C26.25 25.8855 25.1307 27.0048 23.75 27.0048L6.25 27.0048C4.86929 27.0048 3.75 25.8855 3.75 24.5048L3.75002 13.4068C3.75002 12.5359 4.20326 11.7278 4.9464 11.2736ZM12.5 17.0047C11.8097 17.0047 11.25 17.5644 11.25 18.2547V22.0047C11.25 22.6951 11.8097 23.2547 12.5 23.2547H17.5C18.1904 23.2547 18.75 22.6951 18.75 22.0047V18.2547C18.75 17.5644 18.1904 17.0047 17.5 17.0047H12.5Z" fill="#ED4352"/>
</g>
<defs>
<clipPath id="clip0_1507_426">
<rect width="30" height="30" fill="white" transform="translate(0 0.754761)"/>
</clipPath>
</defs>
</svg>
