<svg width="34" height="20" viewBox="0 0 34 20" fill="none" xmlns="http://www.w3.org/2000/svg">
<path d="M33.2113 10.0582C33.2129 15.5477 28.764 19.9986 23.2746 20.0001C17.785 20.0014 13.3342 15.5527 13.3328 10.0633C13.3328 10.0615 13.3328 10.06 13.3328 10.0582C13.3313 4.56893 17.7802 0.117792 23.2694 0.116333C28.759 0.114875 33.2099 4.56377 33.2113 10.0532C33.2113 10.0549 33.2113 10.0565 33.2113 10.0582Z" fill="#FF9900"/>
<path d="M9.87528 0.118946C4.41838 0.153609 0 4.59319 0 10.0583C0 15.5447 4.45282 19.9975 9.93934 19.9975C12.5143 19.9975 14.8615 19.0162 16.6277 17.4078C16.6276 17.4078 16.6274 17.4076 16.6269 17.4074H16.6291C16.9907 17.0778 17.328 16.7222 17.6381 16.343H15.6017C15.3298 16.0146 15.0827 15.6723 14.8607 15.3192H18.3727C18.5863 14.9774 18.7797 14.6225 18.9513 14.2549H14.2809C14.1217 13.9137 13.9835 13.5647 13.8655 13.2106H19.3672C19.6987 12.2199 19.8787 11.16 19.8787 10.0582C19.8787 9.32768 19.7995 8.61548 19.6496 7.92975H13.5737C13.649 7.57684 13.744 7.2282 13.8573 6.88561H19.361C19.2379 6.52104 19.095 6.16578 18.9325 5.8214H14.2803C14.4481 5.46289 14.6383 5.11413 14.8506 4.77738H18.36C18.1265 4.4053 17.868 4.04981 17.5886 3.71306H15.6319C15.9345 3.35701 16.2675 3.02172 16.6291 2.70909C14.8627 1.10048 12.5149 0.118946 9.93934 0.118946C9.91791 0.118946 9.89671 0.118834 9.87528 0.118946Z" fill="#CC0000"/>
<path d="M32.2142 15.2543C32.2683 15.2543 32.3209 15.2683 32.3722 15.2959C32.4238 15.3235 32.4636 15.3633 32.4923 15.415C32.521 15.4662 32.5353 15.5201 32.5353 15.576C32.5353 15.6312 32.5211 15.6846 32.4928 15.7357C32.4647 15.7868 32.425 15.8266 32.3738 15.855C32.3232 15.8829 32.2697 15.897 32.2141 15.897C32.1584 15.897 32.105 15.8829 32.0541 15.855C32.0031 15.8265 31.9636 15.7869 31.9349 15.7357C31.9066 15.6846 31.8926 15.6312 31.8926 15.576C31.8926 15.5201 31.9068 15.4662 31.9357 15.415C31.9646 15.3633 32.0045 15.3238 32.0558 15.2959C32.1076 15.2683 32.1602 15.2543 32.2142 15.2543ZM32.2142 15.3076C32.1692 15.3076 32.1252 15.3192 32.0823 15.3424C32.0396 15.3657 32.0063 15.3985 31.9823 15.4421C31.958 15.4849 31.9459 15.5293 31.9459 15.576C31.9459 15.6222 31.9578 15.6669 31.9812 15.7093C32.0052 15.7515 32.0384 15.7848 32.0808 15.8085C32.1235 15.8322 32.1679 15.8439 32.2141 15.8439C32.2605 15.8439 32.3049 15.8322 32.3475 15.8085C32.3899 15.7848 32.4229 15.7515 32.4466 15.7093C32.4701 15.6669 32.4817 15.6223 32.4817 15.576C32.4817 15.5293 32.4698 15.4848 32.4457 15.4421C32.4218 15.3985 32.3884 15.3657 32.3454 15.3424C32.3029 15.3191 32.2592 15.3076 32.2142 15.3076ZM32.0733 15.7535V15.4077H32.1924C32.2328 15.4077 32.2622 15.4109 32.2804 15.4176C32.2985 15.424 32.313 15.4349 32.3239 15.4509C32.3346 15.4667 32.34 15.4836 32.34 15.5015C32.34 15.5269 32.3311 15.5488 32.3129 15.5675C32.2952 15.5861 32.2711 15.5967 32.2412 15.599C32.2534 15.604 32.2632 15.6104 32.2708 15.6174C32.2849 15.6308 32.3017 15.6536 32.3219 15.6858L32.3639 15.7535H32.296L32.2655 15.699C32.2413 15.6562 32.2219 15.6295 32.207 15.6185C32.1968 15.6108 32.1819 15.6067 32.1625 15.6067H32.1296V15.7538H32.0735M32.1292 15.5588H32.1969C32.2292 15.5588 32.2511 15.5539 32.2629 15.5444C32.2748 15.5345 32.2807 15.5219 32.2807 15.506C32.2807 15.4957 32.278 15.4865 32.2723 15.4786C32.2665 15.4704 32.2586 15.4646 32.2484 15.4605C32.2384 15.4565 32.2198 15.4543 32.1926 15.4543H32.1294V15.5588" fill="#FCB340"/>
<path d="M13.2379 12.9097L13.3702 12.01C13.2979 12.01 13.1915 12.0413 13.0975 12.0413C12.7292 12.0413 12.6832 11.8444 12.7121 11.7006L13.0751 9.89124H13.6351L13.7505 8.8701H13.2227L13.3302 8.25134H12.2262C12.2028 8.27468 11.6016 11.7313 11.6016 12.1524C11.6016 12.7755 11.9513 13.0528 12.4447 13.0484C12.8308 13.0452 13.1318 12.9383 13.2379 12.9097Z" fill="#000066"/>
<path d="M13.573 11.1947C13.573 12.6903 14.56 13.0455 15.4011 13.0455C16.1775 13.0455 16.5846 12.8656 16.5846 12.8656L16.771 11.8448C16.771 11.8448 16.115 12.1115 15.5818 12.1115C14.4454 12.1115 14.6446 11.2642 14.6446 11.2642L16.8279 11.2708C16.8279 11.2708 16.9669 10.5853 16.9669 10.3058C16.9669 9.60844 16.5869 8.75232 15.425 8.75232C14.3609 8.75254 13.573 9.89909 13.573 11.1947ZM15.4291 9.69998C16.0263 9.69998 15.9161 10.3712 15.9161 10.4256H14.7412C14.7412 10.3561 14.8521 9.69998 15.4291 9.69998Z" fill="#000066"/>
<path d="M22.13 12.9094L22.3195 11.7558C22.3195 11.7558 21.7999 12.0161 21.4437 12.0161C20.6929 12.0161 20.3917 11.4429 20.3917 10.827C20.3917 9.57766 21.0376 8.89024 21.7567 8.89024C22.296 8.89024 22.7287 9.19301 22.7287 9.19301L22.9014 8.07203C22.9014 8.07203 22.3906 7.70309 21.8407 7.70096C20.1867 7.69445 19.2402 8.84605 19.2402 10.8368C19.2402 12.1564 19.9411 13.0543 21.204 13.0543C21.561 13.0543 22.13 12.9094 22.13 12.9094Z" fill="#000066"/>
<path d="M7.41711 8.7688C6.69144 8.7688 6.13527 9.00201 6.13527 9.00201L5.98159 9.91367C5.98159 9.91367 6.44073 9.72712 7.13487 9.72712C7.52895 9.72712 7.81724 9.77143 7.81724 10.0917C7.81724 10.2862 7.78201 10.358 7.78201 10.358C7.78201 10.358 7.47106 10.3321 7.32703 10.3321C6.29389 10.3321 5.45044 10.7227 5.45044 11.9003C5.45044 12.8283 6.0812 13.0411 6.47214 13.0411C7.21889 13.0411 7.51447 12.5697 7.53152 12.5683L7.52289 12.9596C7.52289 12.9596 8.45462 12.9596 8.45473 12.9596L8.87046 10.0452C8.87046 8.80851 7.79177 8.7688 7.41711 8.7688ZM7.57841 11.1353C7.59872 11.3132 7.53242 12.1545 6.89504 12.1545C6.56636 12.1545 6.481 11.9032 6.481 11.7549C6.481 11.4651 6.63838 11.1174 7.41374 11.1174C7.59434 11.1174 7.54801 11.1304 7.57841 11.1353Z" fill="#000066"/>
<path d="M9.86094 13.0197C10.0993 13.0197 11.4619 13.0804 11.4619 11.6742C11.4619 10.3594 10.2006 10.6193 10.2006 10.091C10.2006 9.82827 10.4062 9.74549 10.7821 9.74549C10.9312 9.74549 11.5053 9.79294 11.5053 9.79294L11.6387 8.85851C11.6387 8.85863 11.2672 8.77539 10.6623 8.77539C9.87945 8.77539 9.0848 9.08791 9.0848 10.1572C9.0848 11.3689 10.4098 11.2472 10.4098 11.7576C10.4098 12.0983 10.0396 12.1263 9.75427 12.1263C9.26058 12.1263 8.81614 11.9568 8.81457 11.965L8.67334 12.8899C8.69903 12.8977 8.9733 13.0197 9.86094 13.0197Z" fill="#000066"/>
<path d="M30.8592 7.92114L30.6679 9.34678C30.6679 9.34678 30.2694 8.79656 29.6458 8.79656C28.4725 8.79656 27.8679 9.96577 27.8679 11.3089C27.8679 12.176 28.2991 13.0259 29.1803 13.0259C29.8142 13.0259 30.1656 12.5838 30.1656 12.5838L30.1191 12.9613H31.1486L31.9571 7.92888L30.8592 7.92114ZM30.4047 10.692C30.4047 11.251 30.1278 11.9977 29.5543 11.9977C29.1733 11.9977 28.9947 11.6779 28.9947 11.1761C28.9947 10.3556 29.3632 9.81433 29.8284 9.81433C30.2091 9.81433 30.4047 10.0757 30.4047 10.692Z" fill="#000066"/>
<path d="M1.68703 12.9654L2.33125 9.16598L2.42593 12.9654H3.15496L4.51509 9.16598L3.9126 12.9654H4.99599L5.83024 7.92621L4.10924 7.91309L3.08552 10.9984L3.05748 7.92621H1.48029L0.634033 12.9654H1.68703Z" fill="#000066"/>
<path d="M17.9921 12.9726C18.3002 11.221 18.4099 9.83765 19.3082 10.1241C19.4372 9.44615 19.7447 8.85656 19.8851 8.56961C19.8851 8.56961 19.8407 8.50354 19.5631 8.50354C19.0891 8.50354 18.4563 9.46534 18.4563 9.46534L18.5509 8.87069H17.5653L16.9053 12.9725H17.9921V12.9726Z" fill="#000066"/>
<path d="M24.3469 8.7688C23.6209 8.7688 23.0647 9.00201 23.0647 9.00201L22.9112 9.91367C22.9112 9.91367 23.3705 9.72712 24.0643 9.72712C24.4585 9.72712 24.7467 9.77143 24.7467 10.0917C24.7467 10.2862 24.7116 10.358 24.7116 10.358C24.7116 10.358 24.4007 10.3321 24.2567 10.3321C23.2235 10.3321 22.3801 10.7227 22.3801 11.9003C22.3801 12.8283 23.0108 13.0411 23.4017 13.0411C24.1482 13.0411 24.444 12.5697 24.461 12.5683L24.4522 12.9596H25.3843L25.7999 10.0452C25.8 8.80851 24.7213 8.7688 24.3469 8.7688ZM24.508 11.1353C24.5282 11.3132 24.4619 12.1545 23.8246 12.1545C23.4957 12.1545 23.4105 11.9032 23.4105 11.7549C23.4105 11.4651 23.5677 11.1174 24.3432 11.1174C24.5239 11.1174 24.4777 11.1304 24.508 11.1353Z" fill="#000066"/>
<path d="M26.8725 12.9727C27.0417 11.684 27.3547 9.8748 28.1884 10.1242C28.3173 9.44618 28.193 9.44797 27.9155 9.44797C27.4412 9.44797 27.3362 9.46525 27.3362 9.46525L27.4309 8.87061H26.4454L25.7854 12.9725H26.8725V12.9727Z" fill="#000066"/>
<path d="M13.5135 12.5889L13.646 11.6893C13.5736 11.6893 13.4672 11.7203 13.3733 11.7203C13.0049 11.7203 12.9643 11.5244 12.9877 11.3796L13.2853 9.54418H13.8452L13.9804 8.54918H13.4525L13.5599 7.93042H12.5017C12.4783 7.95375 11.877 11.4104 11.877 11.8313C11.877 12.4545 12.2268 12.732 12.7202 12.7275C13.1065 12.7243 13.4074 12.6173 13.5135 12.5889Z" fill="white"/>
<path d="M13.8486 10.8738C13.8486 12.3693 14.8358 12.7247 15.6768 12.7247C16.453 12.7247 16.7946 12.5512 16.7946 12.5512L16.981 11.5305C16.981 11.5305 16.3905 11.7906 15.8573 11.7906C14.7209 11.7906 14.9199 10.9433 14.9199 10.9433H17.0705C17.0705 10.9433 17.2094 10.2576 17.2094 9.97818C17.2094 9.28089 16.8623 8.43127 15.7004 8.43127C14.6363 8.4315 13.8486 9.57805 13.8486 10.8738ZM15.7045 9.37905C16.3017 9.37905 16.1915 10.0502 16.1915 10.1045H15.0166C15.0166 10.0352 15.1277 9.37905 15.7045 9.37905Z" fill="white"/>
<path d="M22.4061 12.5884L22.5955 11.4347C22.5955 11.4347 22.0762 11.695 21.7198 11.695C20.9691 11.695 20.6681 11.1218 20.6681 10.506C20.6681 9.25665 21.314 8.56935 22.033 8.56935C22.5722 8.56935 23.005 8.87212 23.005 8.87212L23.1778 7.75114C23.1778 7.75114 22.536 7.49146 21.9859 7.49146C20.7642 7.49146 19.5757 8.55129 19.5757 10.5417C19.5757 11.8616 20.2174 12.7333 21.4803 12.7333C21.8374 12.7334 22.4061 12.5884 22.4061 12.5884Z" fill="white"/>
<path d="M7.6931 8.44775C6.96743 8.44775 6.41115 8.68097 6.41115 8.68097L6.25758 9.59262C6.25758 9.59262 6.71672 9.40607 7.41075 9.40607C7.80482 9.40607 8.09312 9.45038 8.09312 9.77064C8.09312 9.96516 8.05778 10.0369 8.05778 10.0369C8.05778 10.0369 7.74694 10.0109 7.60302 10.0109C6.68778 10.0109 5.72632 10.4015 5.72632 11.5791C5.72632 12.5071 6.35708 12.72 6.74802 12.72C7.49466 12.72 7.81649 12.2355 7.83365 12.234L7.79877 12.6384H8.73061L9.14633 9.72398C9.14633 8.48758 8.06776 8.44775 7.6931 8.44775ZM7.9198 10.8207C7.94 10.9987 7.80819 11.8332 7.17103 11.8332C6.84236 11.8332 6.75688 11.5822 6.75688 11.4336C6.75688 11.144 6.91426 10.7963 7.68973 10.7963C7.87011 10.7965 7.8894 10.8158 7.9198 10.8207Z" fill="white"/>
<path d="M10.1367 12.6986C10.3751 12.6986 11.7378 12.7592 11.7378 11.3531C11.7378 10.0385 10.4764 10.2982 10.4764 9.77005C10.4764 9.50711 10.682 9.42432 11.0578 9.42432C11.207 9.42432 11.781 9.47177 11.781 9.47177L11.9145 8.53735C11.9145 8.53746 11.5429 8.45422 10.9381 8.45422C10.1552 8.45422 9.36057 8.76675 9.36057 9.83601C9.36057 11.0476 10.6856 10.926 10.6856 11.4364C10.6856 11.7771 10.3154 11.8048 10.0301 11.8048C9.53646 11.8048 9.09191 11.6354 9.09034 11.6435L8.94922 12.5685C8.97479 12.5763 9.24895 12.6986 10.1367 12.6986Z" fill="white"/>
<path d="M31.1719 7.60923L30.9436 9.02567C30.9436 9.02567 30.5453 8.47545 29.9217 8.47545C28.952 8.47545 28.1438 9.64454 28.1438 10.9878C28.1438 11.855 28.5749 12.7046 29.4561 12.7046C30.09 12.7046 30.4415 12.2626 30.4415 12.2626L30.3949 12.6401H31.4243L32.2327 7.60754L31.1719 7.60923ZM30.6804 10.371C30.6804 10.93 30.4037 11.6766 29.8299 11.6766C29.4491 11.6766 29.2706 11.3569 29.2706 10.8551C29.2706 10.0347 29.6391 9.49333 30.1041 9.49333C30.485 9.49322 30.6804 9.75493 30.6804 10.371Z" fill="white"/>
<path d="M1.96298 12.6445L2.6072 8.8451L2.70177 12.6445H3.43091L4.79104 8.8451L4.18855 12.6445H5.27194L6.1063 7.60522H4.43096L3.38761 10.6971L3.33332 7.60522H1.78899L0.942627 12.6445H1.96298Z" fill="white"/>
<path d="M18.2679 12.6515C18.5759 10.8997 18.633 9.47734 19.3681 9.7377C19.4968 9.05971 19.621 8.79745 19.7614 8.5105C19.7614 8.5105 19.6956 8.4967 19.5574 8.4967C19.0834 8.4967 18.7323 9.14418 18.7323 9.14418L18.8267 8.54954H17.8413L17.1812 12.6515H18.2679Z" fill="white"/>
<path d="M24.8478 8.44775C24.1221 8.44775 23.5658 8.68097 23.5658 8.68097L23.4124 9.59262C23.4124 9.59262 23.8715 9.40607 24.5655 9.40607C24.9596 9.40607 25.2477 9.45038 25.2477 9.77064C25.2477 9.96516 25.2126 10.0369 25.2126 10.0369C25.2126 10.0369 24.9017 10.0109 24.7577 10.0109C23.8426 10.0109 22.8811 10.4015 22.8811 11.5791C22.8811 12.5071 23.5118 12.72 23.9027 12.72C24.6493 12.72 24.9712 12.2355 24.9882 12.234L24.9535 12.6384C24.9535 12.6384 25.8851 12.6384 25.8854 12.6384L26.301 9.72398C26.3011 8.48758 25.2224 8.44775 24.8478 8.44775ZM25.0748 10.8207C25.095 10.9987 24.9631 11.8332 24.3257 11.8332C23.997 11.8332 23.9118 11.5822 23.9118 11.4336C23.9118 11.144 24.0692 10.7963 24.8445 10.7963C25.0249 10.7965 25.0441 10.8158 25.0748 10.8207Z" fill="white"/>
<path d="M27.1528 12.6515C27.461 10.8997 27.5181 9.47734 28.2529 9.7377C28.3818 9.05971 28.5061 8.79745 28.6464 8.5105C28.6464 8.5105 28.5806 8.4967 28.4424 8.4967C27.9684 8.4967 27.6173 9.14418 27.6173 9.14418L27.7117 8.54954H26.7263L26.0662 12.6515H27.1528Z" fill="white"/>
<path d="M32.21 12.0186C32.2638 12.0186 32.3167 12.0324 32.3677 12.0604C32.4192 12.0875 32.4593 12.1275 32.488 12.1792C32.5168 12.2306 32.531 12.2841 32.531 12.3401C32.531 12.3954 32.5168 12.4487 32.4884 12.4998C32.4603 12.5508 32.4207 12.5909 32.3696 12.619C32.3187 12.6471 32.2653 12.6612 32.2099 12.6612C32.154 12.6612 32.1006 12.6471 32.0496 12.619C31.9987 12.5907 31.9592 12.5508 31.9309 12.4998C31.9022 12.4487 31.8882 12.3954 31.8882 12.3401C31.8882 12.2841 31.9024 12.2306 31.9313 12.1792C31.9602 12.1275 32.0004 12.0878 32.0516 12.0604C32.1033 12.0324 32.1563 12.0186 32.21 12.0186ZM32.21 12.0715C32.165 12.0715 32.1211 12.0832 32.0781 12.1066C32.0352 12.1295 32.0019 12.1626 31.9778 12.2059C31.9538 12.2486 31.9417 12.2934 31.9417 12.3398C31.9417 12.3863 31.9534 12.4307 31.9768 12.4731C32.0007 12.5154 32.0339 12.5486 32.0768 12.5725C32.1192 12.5958 32.1635 12.6076 32.21 12.6076C32.2562 12.6076 32.3009 12.5958 32.3433 12.5725C32.3857 12.5486 32.4189 12.5154 32.4424 12.4731C32.4661 12.4304 32.4777 12.3863 32.4777 12.3398C32.4777 12.2934 32.4657 12.2486 32.4417 12.2059C32.4178 12.1626 32.3845 12.1295 32.3414 12.1066C32.2987 12.0833 32.2551 12.0715 32.21 12.0715ZM32.0692 12.5175V12.1717H32.1883C32.2288 12.1717 32.2584 12.1749 32.2763 12.1815C32.2945 12.1877 32.3087 12.1988 32.3198 12.2149C32.3307 12.2308 32.3362 12.2475 32.3362 12.2655C32.3362 12.2907 32.327 12.3128 32.3088 12.3314C32.2911 12.35 32.2672 12.3608 32.2374 12.3628C32.2493 12.368 32.2591 12.3742 32.2668 12.3811C32.2806 12.3948 32.2976 12.4177 32.3178 12.4496L32.3601 12.5174H32.2918L32.2614 12.463C32.2372 12.42 32.2178 12.3933 32.2029 12.3825C32.1927 12.3745 32.1778 12.3706 32.1582 12.3706H32.1255V12.5176L32.0692 12.5175ZM32.1251 12.3229H32.1929C32.2253 12.3229 32.2471 12.3181 32.2588 12.3084C32.2706 12.299 32.2768 12.2861 32.2768 12.2701C32.2768 12.2598 32.274 12.2506 32.2683 12.2429C32.2626 12.2346 32.2547 12.2287 32.2445 12.2245C32.2342 12.2206 32.216 12.2186 32.1886 12.2186H32.1252V12.3229" fill="white"/>
</svg>
