<svg width="74" height="20" viewBox="0 0 74 20" fill="none" xmlns="http://www.w3.org/2000/svg">
<path fill-rule="evenodd" clip-rule="evenodd" d="M6.99663 0.119726C7.64786 0.11583 9.58328 -0.058484 10.4031 2.70836C10.9553 4.57213 11.835 7.62508 13.0421 11.8672H13.5337C14.8282 7.39486 15.7175 4.34191 16.2015 2.70836C17.0298 -0.0873053 19.1007 0.119781 19.929 0.119781L26.3199 0.119789V20H19.8062V8.28426H19.3694L15.7383 20H10.8375L7.20641 8.27558H6.76962V20H0.255859V0.119789L6.99663 0.119726ZM35.6735 0.119789V11.8443H36.1932L40.6101 2.20331C41.4675 0.284734 43.2949 0.119789 43.2949 0.119789H49.5982V20.0001H42.9484V8.27558H42.4288L38.0985 17.9165C37.2411 19.8264 35.3271 20.0001 35.3271 20.0001H29.0238V0.119789H35.6735ZM72.5829 9.56702C71.6553 12.1956 68.7423 14.078 65.5173 14.078H58.5437V20.0001H52.2201V9.56702H72.5829Z" fill="#0F754E"/>
<path fill-rule="evenodd" clip-rule="evenodd" d="M65.8222 0.119873H51.8884C52.22 4.5459 56.0316 8.33486 59.9774 8.33486H73.0222C73.775 4.65631 71.1835 0.119873 65.8222 0.119873Z" fill="url(#paint0_linear_1442_2039)"/>
<defs>
<linearGradient id="paint0_linear_1442_2039" x1="73.1501" y1="5.28745" x2="51.8884" y2="5.28745" gradientUnits="userSpaceOnUse">
<stop stop-color="#1F5CD7"/>
<stop offset="1" stop-color="#02AEFF"/>
</linearGradient>
</defs>
</svg>
