<svg width="58" height="58" viewBox="0 0 58 58" fill="none" xmlns="http://www.w3.org/2000/svg">
<g clip-path="url(#clip0_1518_692)">
<g opacity="0.25" filter="url(#filter0_f_1518_692)">
<path d="M33.7589 18.4667H31.3192C28.5867 18.4667 26.8106 20.5913 26.8106 23.8809V26.3711H24.3904C24.1757 26.3711 24 26.5767 24 26.828V30.4375C24 30.6888 24.1757 30.8944 24.3904 30.8944H26.8301V40.0095C26.8301 40.2608 27.0057 40.4664 27.2204 40.4664H30.4214C30.6361 40.4664 30.8117 40.2608 30.8117 40.0095V30.8715H33.6808C33.8955 30.8715 34.0712 30.6659 34.0712 30.4146V26.8051C34.0712 26.6909 34.0322 26.5767 33.9541 26.4853C33.876 26.3939 33.7784 26.3482 33.6808 26.3482H30.7922V24.2465C30.7922 23.2413 31.0069 22.7159 32.1194 22.7159H33.7589C33.9736 22.7159 34.1493 22.5102 34.1493 22.259V18.9236C34.1493 18.6723 33.9736 18.4667 33.7589 18.4667Z" fill="white"/>
</g>
<path d="M33.7589 18.4667H31.3192C28.5867 18.4667 26.8106 20.5913 26.8106 23.8809V26.3711H24.3904C24.1757 26.3711 24 26.5767 24 26.828V30.4375C24 30.6888 24.1757 30.8944 24.3904 30.8944H26.8301V40.0095C26.8301 40.2608 27.0057 40.4664 27.2204 40.4664H30.4214C30.6361 40.4664 30.8117 40.2608 30.8117 40.0095V30.8715H33.6808C33.8955 30.8715 34.0712 30.6659 34.0712 30.4146V26.8051C34.0712 26.6909 34.0322 26.5767 33.9541 26.4853C33.876 26.3939 33.7784 26.3482 33.6808 26.3482H30.7922V24.2465C30.7922 23.2413 31.0069 22.7159 32.1194 22.7159H33.7589C33.9736 22.7159 34.1493 22.5102 34.1493 22.259V18.9236C34.1493 18.6723 33.9736 18.4667 33.7589 18.4667Z" fill="white"/>
</g>
<defs>
<filter id="filter0_f_1518_692" x="9" y="3.46667" width="40.1494" height="51.9998" filterUnits="userSpaceOnUse" color-interpolation-filters="sRGB">
<feFlood flood-opacity="0" result="BackgroundImageFix"/>
<feBlend mode="normal" in="SourceGraphic" in2="BackgroundImageFix" result="shape"/>
<feGaussianBlur stdDeviation="7.5" result="effect1_foregroundBlur_1518_692"/>
</filter>
<clipPath id="clip0_1518_692">
<rect width="58" height="58" fill="white"/>
</clipPath>
</defs>
</svg>
