<svg width="58" height="58" viewBox="0 0 58 58" fill="none" xmlns="http://www.w3.org/2000/svg">
<g clip-path="url(#clip0_1518_693)">
<g opacity="0.25" filter="url(#filter0_f_1518_693)">
<path fill-rule="evenodd" clip-rule="evenodd" d="M30.0985 36.8021C30.0985 36.8021 30.5948 36.748 30.849 36.48C31.0817 36.2344 31.0736 35.771 31.0736 35.771C31.0736 35.771 31.0427 33.6071 32.0662 33.2876C33.075 32.9734 34.3702 35.3802 35.7448 36.3057C36.7832 37.0055 37.5714 36.8523 37.5714 36.8523L41.2446 36.8021C41.2446 36.8021 43.1653 36.686 42.2547 35.2033C42.1794 35.0819 41.7234 34.1062 39.5243 32.102C37.2203 30.0041 37.5297 30.3434 40.3031 26.714C41.9924 24.5039 42.6676 23.1546 42.4565 22.5777C42.2561 22.0258 41.0133 22.1724 41.0133 22.1724L36.8787 22.1974C36.8787 22.1974 36.572 22.1565 36.3447 22.2899C36.1228 22.4206 35.9789 22.7255 35.9789 22.7255C35.9789 22.7255 35.3252 24.4353 34.4523 25.8902C32.611 28.9585 31.8752 29.1209 31.574 28.9308C30.8732 28.4858 31.0481 27.1458 31.0481 26.1939C31.0481 23.2193 31.5081 21.9796 30.1536 21.6588C29.7044 21.5518 29.3735 21.4819 28.2235 21.47C26.7481 21.4555 25.4999 21.4753 24.7924 21.8146C24.3217 22.0403 23.9585 22.5447 24.1804 22.5737C24.4535 22.6094 25.0722 22.7374 25.4004 23.1758C25.824 23.7421 25.8092 25.0122 25.8092 25.0122C25.8092 25.0122 26.0527 28.5136 25.2403 28.9479C24.6835 29.2463 23.9195 28.6377 22.2772 25.8532C21.4366 24.4274 20.8018 22.851 20.8018 22.851C20.8018 22.851 20.6794 22.5566 20.4601 22.3981C20.1952 22.2067 19.8253 22.1473 19.8253 22.1473L15.8965 22.1724C15.8965 22.1724 15.306 22.1882 15.0895 22.4404C14.8972 22.6635 15.0747 23.1269 15.0747 23.1269C15.0747 23.1269 18.1507 30.1916 21.6343 33.7524C24.8287 37.016 28.4549 36.8021 28.4549 36.8021H30.0985Z" fill="white"/>
</g>
<path fill-rule="evenodd" clip-rule="evenodd" d="M30.0985 36.8021C30.0985 36.8021 30.5948 36.748 30.849 36.48C31.0817 36.2344 31.0736 35.771 31.0736 35.771C31.0736 35.771 31.0427 33.6071 32.0662 33.2876C33.075 32.9734 34.3702 35.3802 35.7448 36.3057C36.7832 37.0055 37.5714 36.8523 37.5714 36.8523L41.2446 36.8021C41.2446 36.8021 43.1653 36.686 42.2547 35.2033C42.1794 35.0819 41.7234 34.1062 39.5243 32.102C37.2203 30.0041 37.5297 30.3434 40.3031 26.714C41.9924 24.5039 42.6676 23.1546 42.4565 22.5777C42.2561 22.0258 41.0133 22.1724 41.0133 22.1724L36.8787 22.1974C36.8787 22.1974 36.572 22.1565 36.3447 22.2899C36.1228 22.4206 35.9789 22.7255 35.9789 22.7255C35.9789 22.7255 35.3252 24.4353 34.4523 25.8902C32.611 28.9585 31.8752 29.1209 31.574 28.9308C30.8732 28.4858 31.0481 27.1458 31.0481 26.1939C31.0481 23.2193 31.5081 21.9796 30.1536 21.6588C29.7044 21.5518 29.3735 21.4819 28.2235 21.47C26.7481 21.4555 25.4999 21.4753 24.7924 21.8146C24.3217 22.0403 23.9585 22.5447 24.1804 22.5737C24.4535 22.6094 25.0722 22.7374 25.4004 23.1758C25.824 23.7421 25.8092 25.0122 25.8092 25.0122C25.8092 25.0122 26.0527 28.5136 25.2403 28.9479C24.6835 29.2463 23.9195 28.6377 22.2772 25.8532C21.4366 24.4274 20.8018 22.851 20.8018 22.851C20.8018 22.851 20.6794 22.5566 20.4601 22.3981C20.1952 22.2067 19.8253 22.1473 19.8253 22.1473L15.8965 22.1724C15.8965 22.1724 15.306 22.1882 15.0895 22.4404C14.8972 22.6635 15.0747 23.1269 15.0747 23.1269C15.0747 23.1269 18.1507 30.1916 21.6343 33.7524C24.8287 37.016 28.4549 36.8021 28.4549 36.8021H30.0985Z" fill="white"/>
</g>
<defs>
<filter id="filter0_f_1518_693" x="-15" y="-8.53333" width="87.4995" height="75.3998" filterUnits="userSpaceOnUse" color-interpolation-filters="sRGB">
<feFlood flood-opacity="0" result="BackgroundImageFix"/>
<feBlend mode="normal" in="SourceGraphic" in2="BackgroundImageFix" result="shape"/>
<feGaussianBlur stdDeviation="15" result="effect1_foregroundBlur_1518_693"/>
</filter>
<clipPath id="clip0_1518_693">
<rect width="58" height="58" fill="white"/>
</clipPath>
</defs>
</svg>
