<svg width="58" height="58" viewBox="0 0 58 58" fill="none" xmlns="http://www.w3.org/2000/svg">
<g clip-path="url(#clip0_1518_679)">
<g opacity="0.25" filter="url(#filter0_f_1518_679)">
<path fill-rule="evenodd" clip-rule="evenodd" d="M28.5244 18.4667C25.5369 18.4667 25.162 18.4797 23.9887 18.5331C22.8176 18.5868 22.0183 18.7722 21.3189 19.0442C20.5954 19.3251 19.9817 19.701 19.3703 20.3126C18.7584 20.924 18.3826 21.5377 18.1007 22.261C17.828 22.9606 17.6424 23.7602 17.5897 24.9308C17.5372 26.1041 17.5234 26.4793 17.5234 29.4667C17.5234 32.4541 17.5367 32.8279 17.5899 34.0012C17.6438 35.1722 17.8291 35.9716 18.1009 36.671C18.3821 37.3945 18.758 38.0082 19.3696 38.6196C19.9808 39.2315 20.5945 39.6082 21.3175 39.8892C22.0174 40.1612 22.817 40.3466 23.9878 40.4002C25.1611 40.4536 25.5358 40.4667 28.523 40.4667C31.5106 40.4667 31.8844 40.4536 33.0577 40.4002C34.2288 40.3466 35.029 40.1612 35.7289 39.8892C36.4521 39.6082 37.0649 39.2315 37.6761 38.6196C38.288 38.0082 38.6638 37.3945 38.9457 36.6712C39.2161 35.9716 39.4018 35.172 39.4568 34.0014C39.5095 32.8281 39.5232 32.4541 39.5232 29.4667C39.5232 26.4793 39.5095 26.1043 39.4568 24.931C39.4018 23.76 39.2161 22.9606 38.9457 22.2612C38.6638 21.5377 38.288 20.924 37.6761 20.3126C37.0643 19.7007 36.4524 19.3249 35.7282 19.0442C35.027 18.7722 34.2272 18.5868 33.0561 18.5331C31.8828 18.4797 31.5093 18.4667 28.5209 18.4667H28.5244ZM27.5352 20.449C27.8281 20.4486 28.1549 20.449 28.522 20.449C31.459 20.449 31.8071 20.4596 32.9669 20.5123C34.0394 20.5613 34.6215 20.7405 35.0093 20.8911C35.5226 21.0905 35.8886 21.3288 36.2733 21.7138C36.6583 22.0988 36.8967 22.4655 37.0965 22.9788C37.2471 23.3661 37.4265 23.9482 37.4753 25.0207C37.528 26.1803 37.5395 26.5286 37.5395 29.4642C37.5395 32.3999 37.528 32.7482 37.4753 33.9078C37.4263 34.9803 37.2471 35.5624 37.0965 35.9496C36.8971 36.463 36.6583 36.8285 36.2733 37.2133C35.8883 37.5983 35.5228 37.8366 35.0093 38.036C34.622 38.1872 34.0394 38.366 32.9669 38.415C31.8073 38.4677 31.459 38.4792 28.522 38.4792C25.5848 38.4792 25.2367 38.4677 24.0771 38.415C23.0046 38.3655 22.4225 38.1863 22.0345 38.0358C21.5212 37.8364 21.1545 37.598 20.7695 37.213C20.3845 36.828 20.1462 36.4623 19.9464 35.9487C19.7958 35.5614 19.6164 34.9794 19.5675 33.9069C19.5148 32.7473 19.5043 32.3989 19.5043 29.4615C19.5043 26.524 19.5148 26.1775 19.5675 25.0179C19.6166 23.9454 19.7958 23.3634 19.9464 22.9756C20.1457 22.4623 20.3845 22.0956 20.7695 21.7106C21.1545 21.3256 21.5212 21.0873 22.0345 20.8874C22.4223 20.7362 23.0046 20.5574 24.0771 20.5082C25.0918 20.4623 25.4851 20.4486 27.5352 20.4463V20.449ZM34.3938 22.2755C33.6651 22.2755 33.0738 22.866 33.0738 23.595C33.0738 24.3238 33.6651 24.915 34.3938 24.915C35.1226 24.915 35.7138 24.3238 35.7138 23.595C35.7138 22.8663 35.1226 22.275 34.3938 22.275V22.2755ZM28.5242 23.8177C25.4045 23.8177 22.8752 26.347 22.8752 29.4667C22.8752 32.5863 25.4045 35.1145 28.5242 35.1145C31.6438 35.1145 34.1722 32.5863 34.1722 29.4667C34.1722 26.347 31.6436 23.8177 28.5239 23.8177H28.5242ZM28.5249 25.8001C30.5498 25.8001 32.1915 27.4416 32.1915 29.4668C32.1915 31.4917 30.5498 33.1334 28.5249 33.1334C26.4997 33.1334 24.8582 31.4917 24.8582 29.4668C24.8582 27.4416 26.4997 25.8001 28.5249 25.8001V25.8001Z" fill="white"/>
</g>
<path fill-rule="evenodd" clip-rule="evenodd" d="M28.5244 18.4667C25.5369 18.4667 25.162 18.4797 23.9887 18.5331C22.8176 18.5868 22.0183 18.7722 21.3189 19.0442C20.5954 19.3251 19.9817 19.701 19.3703 20.3126C18.7584 20.924 18.3826 21.5377 18.1007 22.261C17.828 22.9606 17.6424 23.7602 17.5897 24.9308C17.5372 26.1041 17.5234 26.4793 17.5234 29.4667C17.5234 32.4541 17.5367 32.8279 17.5899 34.0012C17.6438 35.1722 17.8291 35.9716 18.1009 36.671C18.3821 37.3945 18.758 38.0082 19.3696 38.6196C19.9808 39.2315 20.5945 39.6082 21.3175 39.8892C22.0174 40.1612 22.817 40.3466 23.9878 40.4002C25.1611 40.4536 25.5358 40.4667 28.523 40.4667C31.5106 40.4667 31.8844 40.4536 33.0577 40.4002C34.2288 40.3466 35.029 40.1612 35.7289 39.8892C36.4521 39.6082 37.0649 39.2315 37.6761 38.6196C38.288 38.0082 38.6638 37.3945 38.9457 36.6712C39.2161 35.9716 39.4018 35.172 39.4568 34.0014C39.5095 32.8281 39.5232 32.4541 39.5232 29.4667C39.5232 26.4793 39.5095 26.1043 39.4568 24.931C39.4018 23.76 39.2161 22.9606 38.9457 22.2612C38.6638 21.5377 38.288 20.924 37.6761 20.3126C37.0643 19.7007 36.4524 19.3249 35.7282 19.0442C35.027 18.7722 34.2272 18.5868 33.0561 18.5331C31.8828 18.4797 31.5093 18.4667 28.5209 18.4667H28.5244ZM27.5352 20.449C27.8281 20.4486 28.1549 20.449 28.522 20.449C31.459 20.449 31.8071 20.4596 32.9669 20.5123C34.0394 20.5613 34.6215 20.7405 35.0093 20.8911C35.5226 21.0905 35.8886 21.3288 36.2733 21.7138C36.6583 22.0988 36.8967 22.4655 37.0965 22.9788C37.2471 23.3661 37.4265 23.9482 37.4753 25.0207C37.528 26.1803 37.5395 26.5286 37.5395 29.4642C37.5395 32.3999 37.528 32.7482 37.4753 33.9078C37.4263 34.9803 37.2471 35.5624 37.0965 35.9496C36.8971 36.463 36.6583 36.8285 36.2733 37.2133C35.8883 37.5983 35.5228 37.8366 35.0093 38.036C34.622 38.1872 34.0394 38.366 32.9669 38.415C31.8073 38.4677 31.459 38.4792 28.522 38.4792C25.5848 38.4792 25.2367 38.4677 24.0771 38.415C23.0046 38.3655 22.4225 38.1863 22.0345 38.0358C21.5212 37.8364 21.1545 37.598 20.7695 37.213C20.3845 36.828 20.1462 36.4623 19.9464 35.9487C19.7958 35.5614 19.6164 34.9794 19.5675 33.9069C19.5148 32.7473 19.5043 32.3989 19.5043 29.4615C19.5043 26.524 19.5148 26.1775 19.5675 25.0179C19.6166 23.9454 19.7958 23.3634 19.9464 22.9756C20.1457 22.4623 20.3845 22.0956 20.7695 21.7106C21.1545 21.3256 21.5212 21.0873 22.0345 20.8874C22.4223 20.7362 23.0046 20.5574 24.0771 20.5082C25.0918 20.4623 25.4851 20.4486 27.5352 20.4463V20.449ZM34.3938 22.2755C33.6651 22.2755 33.0738 22.866 33.0738 23.595C33.0738 24.3238 33.6651 24.915 34.3938 24.915C35.1226 24.915 35.7138 24.3238 35.7138 23.595C35.7138 22.8663 35.1226 22.275 34.3938 22.275V22.2755ZM28.5242 23.8177C25.4045 23.8177 22.8752 26.347 22.8752 29.4667C22.8752 32.5863 25.4045 35.1145 28.5242 35.1145C31.6438 35.1145 34.1722 32.5863 34.1722 29.4667C34.1722 26.347 31.6436 23.8177 28.5239 23.8177H28.5242ZM28.5249 25.8001C30.5498 25.8001 32.1915 27.4416 32.1915 29.4668C32.1915 31.4917 30.5498 33.1334 28.5249 33.1334C26.4997 33.1334 24.8582 31.4917 24.8582 29.4668C24.8582 27.4416 26.4997 25.8001 28.5249 25.8001V25.8001Z" fill="white"/>
</g>
<defs>
<filter id="filter0_f_1518_679" x="-12.4766" y="-11.5333" width="82" height="82" filterUnits="userSpaceOnUse" color-interpolation-filters="sRGB">
<feFlood flood-opacity="0" result="BackgroundImageFix"/>
<feBlend mode="normal" in="SourceGraphic" in2="BackgroundImageFix" result="shape"/>
<feGaussianBlur stdDeviation="15" result="effect1_foregroundBlur_1518_679"/>
</filter>
<clipPath id="clip0_1518_679">
<rect width="58" height="58" fill="white"/>
</clipPath>
</defs>
</svg>
