<svg width="93" height="95" viewBox="0 0 93 95" fill="none" xmlns="http://www.w3.org/2000/svg">
<path d="M33.7166 46.4521C33.7166 46.4521 46.1004 41.1836 50.3952 39.3285C52.0417 38.5865 57.6251 36.2119 57.6251 36.2119C57.6251 36.2119 60.2021 35.1731 59.9873 37.696C59.9157 38.7349 59.343 42.3708 58.7704 46.3037C57.9114 51.869 56.9808 57.9537 56.9808 57.9537C56.9808 57.9537 56.8377 59.6605 55.6208 59.9573C54.4039 60.2541 52.3995 58.9185 52.0417 58.6216C51.7553 58.399 46.673 55.0598 44.8119 53.4273C44.3108 52.9821 43.7381 52.0917 44.8834 51.0528C47.4604 48.604 50.5384 45.5617 52.3995 43.6324C53.2586 42.7419 54.1175 40.6642 50.5384 43.1871C45.4561 46.8231 40.4454 50.2365 40.4454 50.2365C40.4454 50.2365 39.3 50.9785 37.1526 50.3107C35.005 49.6429 32.4997 48.7524 32.4997 48.7524C32.4997 48.7524 30.7818 47.6394 33.7166 46.4521Z" fill="white"/>
</svg>
