<svg width="62" height="20" viewBox="0 0 62 20" fill="none" xmlns="http://www.w3.org/2000/svg">
<g clip-path="url(#clip0_1442_2045)">
<path d="M27.0768 19.7132H22.0999L25.2128 0.46521H30.1894L27.0768 19.7132Z" fill="#00579F"/>
<path d="M45.1186 0.935795C44.1369 0.54634 42.5799 0.116333 40.6547 0.116333C35.7398 0.116333 32.2788 2.7372 32.2576 6.48424C32.2168 9.2488 34.7356 10.7843 36.6194 11.7061C38.5449 12.648 39.1995 13.2628 39.1995 14.1024C39.1799 15.3919 37.6436 15.9863 36.2107 15.9863C34.2236 15.9863 33.159 15.6799 31.541 14.9624L30.8857 14.6549L30.1892 18.9757C31.3565 19.5075 33.5071 19.9794 35.7398 20.0001C40.962 20.0001 44.3617 17.4197 44.402 13.4267C44.4219 11.2355 43.0919 9.55661 40.2244 8.18467C38.4837 7.30398 37.4177 6.71013 37.4177 5.80902C37.4381 4.98983 38.3193 4.15077 40.2843 4.15077C41.9023 4.10968 43.091 4.49859 43.9916 4.88777L44.4418 5.09216L45.1186 0.935795Z" fill="#00579F"/>
<path d="M51.7333 12.8943C52.1432 11.7885 53.7203 7.50888 53.7203 7.50888C53.6996 7.54998 54.1294 6.3827 54.3751 5.66611L54.723 7.32463C54.723 7.32463 55.6654 11.932 55.8701 12.8943C55.0923 12.8943 52.7163 12.8943 51.7333 12.8943ZM57.8767 0.46521H54.027C52.8399 0.46521 51.938 0.813025 51.4258 2.06222L44.0332 19.7129H49.2553C49.2553 19.7129 50.1151 17.3373 50.2999 16.8256C50.8728 16.8256 55.9528 16.8256 56.6898 16.8256C56.8327 17.5014 57.2837 19.7129 57.2837 19.7129H61.8918L57.8767 0.46521Z" fill="#00579F"/>
<path d="M17.9428 0.46521L13.0688 13.5905L12.5362 10.9285C11.6351 7.85697 8.80902 4.51979 5.65527 2.86046L10.1197 19.6928H15.3827L23.2055 0.46521H17.9428Z" fill="#00579F"/>
<path d="M8.54291 0.46521H0.535532L0.453613 0.854121C6.69987 2.45141 10.8366 6.3016 12.5363 10.9293L10.7955 2.08318C10.509 0.853849 9.62827 0.505761 8.54291 0.46521Z" fill="#FAA61A"/>
</g>
<defs>
<clipPath id="clip0_1442_2045">
<rect width="61.4381" height="19.8837" fill="white" transform="translate(0.453613 0.116333)"/>
</clipPath>
</defs>
</svg>
