<svg width="93" height="95" viewBox="0 0 93 95" fill="none" xmlns="http://www.w3.org/2000/svg">
<path fill-rule="evenodd" clip-rule="evenodd" d="M61.2657 40.2188C61.4881 39.5163 61.2657 39 60.207 39H56.7062C55.8161 39 55.4057 39.446 55.1831 39.9378C55.1831 39.9378 53.4029 44.0478 50.8808 46.7175C50.0649 47.4904 49.694 47.7362 49.2489 47.7362C49.0264 47.7362 48.7043 47.4904 48.7043 46.7878V40.2188C48.7043 39.3757 48.446 39 47.7041 39H42.2028C41.6466 39 41.312 39.3913 41.312 39.7622C41.312 40.5614 42.573 40.7457 42.703 42.994V47.8768C42.703 48.9474 42.4988 49.1415 42.0538 49.1415C40.867 49.1415 37.9801 45.0131 36.2679 40.2891C35.9324 39.3709 35.5958 39 34.7011 39H31.2003C30.2001 39 30 39.446 30 39.9378C30 40.816 31.1869 45.1719 35.5262 50.933C38.4191 54.8673 42.4949 57 46.2038 57C48.4291 57 48.7044 56.5263 48.7044 55.7104V52.7368C48.7044 51.7895 48.9152 51.6004 49.6198 51.6004C50.1391 51.6004 51.0292 51.8463 53.1062 53.7432C55.4798 55.9914 55.8712 57 57.2063 57H60.7071C61.7074 57 62.2075 56.5263 61.919 55.5915C61.6033 54.6599 60.47 53.3081 58.9662 51.7058C58.1502 50.7925 56.9263 49.8089 56.5554 49.317C56.0362 48.6848 56.1845 48.4037 56.5554 47.8417C56.5554 47.8417 60.8206 42.1509 61.2657 40.2188Z" fill="white"/>
</svg>
