<svg width="93" height="95" viewBox="0 0 93 95" fill="none" xmlns="http://www.w3.org/2000/svg">
<path fill-rule="evenodd" clip-rule="evenodd" d="M60.0655 35.7443C61.6176 36.1591 62.8374 37.3693 63.2498 38.9034C64 41.6875 64 47.5 64 47.5C64 47.5 64 53.3125 63.2498 56.0966C62.8317 57.6364 61.6118 58.8466 60.0655 59.2557C57.2593 60 46 60 46 60C46 60 34.7464 60 31.9345 59.2557C30.3824 58.8409 29.1626 57.6307 28.7502 56.0966C28 53.3125 28 47.5 28 47.5C28 47.5 28 41.6875 28.7502 38.9034C29.1683 37.3636 30.3882 36.1534 31.9345 35.7443C34.7464 35 46 35 46 35C46 35 57.2593 35 60.0655 35.7443ZM42.25 53.1292L52 47.5L42.25 41.8708L42.25 53.1292Z" fill="white"/>
</svg>
